<mxfile host="app.diagrams.net" agent="Mozilla/5.0 (Windows NT 10.0; Win64; x64) AppleWebKit/537.36 (KHTML, like Gecko) Chrome/128.0.0.0 Safari/537.36" version="24.7.12">
  <diagram id="prtHgNgQTEPvFCAcTncT" name="Page-1">
    <mxGraphModel dx="1221" dy="759" grid="1" gridSize="10" guides="1" tooltips="1" connect="1" arrows="1" fold="1" page="1" pageScale="1" pageWidth="827" pageHeight="1169" math="0" shadow="0">
      <root>
        <mxCell id="0" />
        <mxCell id="1" parent="0" />
        <mxCell id="-eRwNtEl9WBfkoWppJnZ-1" value="" style="rounded=0;whiteSpace=wrap;html=1;" vertex="1" parent="1">
          <mxGeometry x="170" y="280" width="430" height="60" as="geometry" />
        </mxCell>
        <mxCell id="-eRwNtEl9WBfkoWppJnZ-2" value="" style="rounded=0;whiteSpace=wrap;html=1;" vertex="1" parent="1">
          <mxGeometry x="170" y="180" width="430" height="60" as="geometry" />
        </mxCell>
        <mxCell id="-eRwNtEl9WBfkoWppJnZ-3" value="" style="shape=flexArrow;endArrow=classic;html=1;rounded=0;entryX=0.25;entryY=1;entryDx=0;entryDy=0;" edge="1" parent="1">
          <mxGeometry width="50" height="50" relative="1" as="geometry">
            <mxPoint x="326.5" y="280" as="sourcePoint" />
            <mxPoint x="326" y="240" as="targetPoint" />
          </mxGeometry>
        </mxCell>
        <mxCell id="-eRwNtEl9WBfkoWppJnZ-4" value="" style="shape=flexArrow;endArrow=classic;html=1;rounded=0;entryX=0.25;entryY=1;entryDx=0;entryDy=0;" edge="1" parent="1">
          <mxGeometry width="50" height="50" relative="1" as="geometry">
            <mxPoint x="486" y="280" as="sourcePoint" />
            <mxPoint x="486" y="240" as="targetPoint" />
          </mxGeometry>
        </mxCell>
        <mxCell id="-eRwNtEl9WBfkoWppJnZ-5" value="取证解析数据" style="rounded=1;whiteSpace=wrap;html=1;" vertex="1" parent="1">
          <mxGeometry x="240" y="290" width="100" height="40" as="geometry" />
        </mxCell>
        <mxCell id="-eRwNtEl9WBfkoWppJnZ-6" value="案例信息" style="rounded=1;whiteSpace=wrap;html=1;" vertex="1" parent="1">
          <mxGeometry x="364" y="290" width="100" height="40" as="geometry" />
        </mxCell>
        <mxCell id="-eRwNtEl9WBfkoWppJnZ-7" value="固证数据" style="rounded=1;whiteSpace=wrap;html=1;" vertex="1" parent="1">
          <mxGeometry x="480" y="290" width="100" height="40" as="geometry" />
        </mxCell>
        <mxCell id="-eRwNtEl9WBfkoWppJnZ-9" value="案例数据&lt;div&gt;M01&lt;/div&gt;" style="text;html=1;align=center;verticalAlign=middle;whiteSpace=wrap;rounded=0;" vertex="1" parent="1">
          <mxGeometry x="173" y="297" width="60" height="30" as="geometry" />
        </mxCell>
        <mxCell id="-eRwNtEl9WBfkoWppJnZ-10" value="结果查看" style="rounded=1;whiteSpace=wrap;html=1;" vertex="1" parent="1">
          <mxGeometry x="239" y="190" width="57" height="40" as="geometry" />
        </mxCell>
        <mxCell id="-eRwNtEl9WBfkoWppJnZ-11" value="数据搜索" style="rounded=1;whiteSpace=wrap;html=1;" vertex="1" parent="1">
          <mxGeometry x="306" y="190" width="60" height="40" as="geometry" />
        </mxCell>
        <mxCell id="-eRwNtEl9WBfkoWppJnZ-12" value="数据导出" style="rounded=1;whiteSpace=wrap;html=1;" vertex="1" parent="1">
          <mxGeometry x="379" y="190" width="60" height="40" as="geometry" />
        </mxCell>
        <mxCell id="-eRwNtEl9WBfkoWppJnZ-13" value="数据分析" style="rounded=1;whiteSpace=wrap;html=1;" vertex="1" parent="1">
          <mxGeometry x="452" y="190" width="60" height="40" as="geometry" />
        </mxCell>
        <mxCell id="-eRwNtEl9WBfkoWppJnZ-14" value="数据重建" style="rounded=1;whiteSpace=wrap;html=1;" vertex="1" parent="1">
          <mxGeometry x="526" y="190" width="60" height="40" as="geometry" />
        </mxCell>
        <mxCell id="-eRwNtEl9WBfkoWppJnZ-17" value="结果展示" style="text;html=1;align=center;verticalAlign=middle;whiteSpace=wrap;rounded=0;" vertex="1" parent="1">
          <mxGeometry x="340" y="240" width="60" height="30" as="geometry" />
        </mxCell>
        <mxCell id="-eRwNtEl9WBfkoWppJnZ-18" value="二次操作" style="text;html=1;align=center;verticalAlign=middle;whiteSpace=wrap;rounded=0;" vertex="1" parent="1">
          <mxGeometry x="500" y="240" width="60" height="30" as="geometry" />
        </mxCell>
        <mxCell id="-eRwNtEl9WBfkoWppJnZ-19" value="数据交互" style="text;html=1;align=center;verticalAlign=middle;whiteSpace=wrap;rounded=0;" vertex="1" parent="1">
          <mxGeometry x="173" y="195" width="60" height="30" as="geometry" />
        </mxCell>
      </root>
    </mxGraphModel>
  </diagram>
</mxfile>
